<?xml version="1.0" encoding="UTF-8" standalone="no"?>
<svg width="160" height="660" viewBox="1300 200 160 660" fill-rule="evenodd" version="1.1" id="svg11"
   xmlns="http://www.w3.org/2000/svg" xmlns:svg="http://www.w3.org/2000/svg">
   <defs id="defs1">
      <image id="_FlagImage" href="data:image/svg+xml,%3Csvg xmlns='http://www.w3.org/2000/svg' width='900' height='600'%3E%3Cpath fill='%23fff' d='M0 0h900v600H0z'/%3E%3Cpath fill='red' d='M0 0h900v300H0z'/%3E%3C/svg%3E" x="-40" y="1189" width="980" height="650"
         preserveAspectRatio="none" />
   </defs>
   <g transform="matrix(0.64314521,0,0,0.64314521,168.47224,187.9207)" id="g11">
      <g transform="matrix(-0.429234,0.752528,0.59081,0.336992,1180.155,-273.081)" id="g2">
         <clipPath id="A">
            <path
               d="m 795.741,1576.49 -195.789,244.329 c 67.019,8.601 195.82,10.078 308.767,13.781 7.373,-0.2 7.335,-1.888 4.575,-10.217 -29.016,-87.558 -68.42,-170.082 -117.553,-247.893 z"
               id="path1" />
         </clipPath>
         <g clip-path="url(#A)" class="B" id="g1">
            <use href="#_FlagImage" id="use1" />
         </g>
      </g>
      <path
         d="m 1770,857 228.391,-65 c -23.685,53.332 -78.098,150.757 -124.391,237 -3.283,5.481 -4.264,4.883 -8,0 -39.276,-51.342 -71.118,-108.804 -96,-172 z"
         fill-opacity="0.1" id="path2" />
      <g transform="matrix(0.267713,0.823935,-0.646872,0.210182,2823.42,-238.933)" id="g4">
         <clipPath id="B">
            <path d="m 494.542,1814.92 c 7.995,6.033 83.267,1.474 137.322,-0.687 L 246.584,1478.55 67.159,1467.675 Z"
               id="path3" />
         </clipPath>
         <g clip-path="url(#B)" class="B" id="g3">
            <use href="#_FlagImage" id="use3" />
         </g>
      </g>
      <path d="m 1781.793,550 c -1.762,7.856 21.338,68.916 37.207,113 l 114,-388 -41,-150.12 z" fill-opacity="0.27"
         id="path4" />
      <g transform="matrix(0.116077,0.858525,-0.674029,0.091132,2726.47,-58.0365)" id="g6">
         <clipPath id="C">
            <path
               d="m -22.635,1234.14 5.941,-9.686 c 4.326,-4.355 3.505,-4.951 8.497,-5.631 l 873.745,9.527 c 13.692,0.713 13.472,1.51 15.456,18.982 l 28.734,310.88 c 1.585,23.581 1.46,22.571 -16.694,14.621 L 355.348,1337.808 Z"
               id="path5" />
         </clipPath>
         <g clip-path="url(#C)" class="B" id="g5">
            <use href="#_FlagImage" id="use5" />
         </g>
      </g>
      <path
         d="m 1892,35 7.218,4.218 c 3.437,3.317 3.744,2.558 4.782,6.782 l 95,751 c 1.109,11.821 0.546,11.704 -11,15 l -206.207,53 c -15.711,3.509 -15.044,3.31 -11.793,-13 l 96,-483.044 z"
         fill-opacity="0.05" id="path6" />
      <g transform="matrix(-0.792663,0.349606,0.274476,0.622321,1516.126,-690.999)" id="g8">
         <clipPath id="D">
            <path
               d="m 165.204,1828.3 127.251,3.159 c 3.591,0.221 8.679,-0.051 2.87,-8.01 L -15.871,1319.943 c 67.506,164.792 120.291,338.593 181.075,508.357 z"
               id="path7" />
         </clipPath>
         <g clip-path="url(#D)" class="B" id="g7">
            <use href="#_FlagImage" id="use7" />
         </g>
      </g>
      <path
         d="M 1887,504.546 1787,551 c -2.786,1.392 -6.894,3.002 -4.474,-3.982 L 1891,124.88 c -8.279,126.154 -2.415,252.768 -4,379.666 z"
         fill-opacity="0.15" id="path8" />
      <g transform="matrix(0.50922,0.700881,-0.550263,0.399789,2684.46,-510.015)" id="g10">
         <clipPath id="E">
            <path
               d="m -32.445,1410.13 c -4.249,5.957 -5.279,10.783 3.035,27.923 0,0 205.919,385.697 247.811,387.762 l 186.788,0.21 c 0,0 4.248,0.252 -3.644,-7.074 z"
               id="path9" />
         </clipPath>
         <g clip-path="url(#E)" class="B" id="g9">
            <use href="#_FlagImage" id="use9" />
         </g>
      </g>
   </g>
</svg>