<svg xmlns="http://www.w3.org/2000/svg" width="100%" height="100%" viewBox="0 0 3077 2488" fill-rule="evenodd"
    xmlns:v="https://vecta.io/nano">
    <defs>
        <image id="_FlagImage" href="https://flagcdn.com/un.svg" x="-40" y="1189" width="980" height="650"
            preserveAspectRatio="none" />
    </defs>
    <g transform="matrix(2.08333 0 0 2.08333 -2199.99 214.036)">
        <g transform="matrix(-.429234 .752528 .59081 .336992 1180.155 -273.081)">
            <clipPath id="A">
                <path
                    d="M795.741 1576.49l-195.789 244.329c67.019 8.601 195.82 10.078 308.767 13.781 7.373-.2 7.335-1.888 4.575-10.217-29.016-87.558-68.42-170.082-117.553-247.893z" />
            </clipPath>
            <g clip-path="url(#A)" class="B">
                <use href="#_FlagImage" />
            </g>
        </g>
        <path
            d="M1770 857l228.391-65c-23.685 53.332-78.098 150.757-124.391 237-3.283 5.481-4.264 4.883-8 0-39.276-51.342-71.118-108.804-96-172z"
            fill-opacity=".1" />
        <g transform="matrix(.267713 .823935 -.646872 .210182 2823.42 -238.933)">
            <clipPath id="B">
                <path
                    d="M494.542 1814.92c7.995 6.033 83.267 1.474 137.322-.687l-385.28-335.683-179.425-10.875 427.383 347.245z" />
            </clipPath>
            <g clip-path="url(#B)" class="B">
                <use href="#_FlagImage" />
            </g>
        </g>
        <path d="M1781.793 550c-1.762 7.856 21.338 68.916 37.207 113l114-388-41-150.12L1781.793 550z"
            fill-opacity=".27" />
        <g transform="matrix(.116077 .858525 -.674029 .091132 2726.47 -58.0365)">
            <clipPath id="C">
                <path
                    d="M-22.635 1234.14l5.941-9.686c4.326-4.355 3.505-4.951 8.497-5.631l873.745 9.527c13.692.713 13.472 1.51 15.456 18.982l28.734 310.88c1.585 23.581 1.46 22.571-16.694 14.621l-537.696-235.025-377.983-103.668z" />
            </clipPath>
            <g clip-path="url(#C)" class="B">
                <use href="#_FlagImage" />
            </g>
        </g>
        <path
            d="M1892 35l7.218 4.218c3.437 3.317 3.744 2.558 4.782 6.782l95 751c1.109 11.821.546 11.704-11 15l-206.207 53c-15.711 3.509-15.044 3.31-11.793-13l96-483.044L1892 35z"
            fill-opacity=".05" />
        <g transform="matrix(-.792663 .349606 .274476 .622321 1516.126 -690.999)">
            <clipPath id="D">
                <path
                    d="M165.204 1828.3l127.251 3.159c3.591.221 8.679-.051 2.87-8.01l-311.196-503.506c67.506 164.792 120.291 338.593 181.075 508.357z" />
            </clipPath>
            <g clip-path="url(#D)" class="B">
                <use href="#_FlagImage" />
            </g>
        </g>
        <path
            d="M1887 504.546L1787 551c-2.786 1.392-6.894 3.002-4.474-3.982L1891 124.88c-8.279 126.154-2.415 252.768-4 379.666z"
            fill-opacity=".15" />
        <g transform="matrix(.50922 .700881 -.550263 .399789 2684.46 -510.015)">
            <clipPath id="E">
                <path
                    d="M-32.445 1410.13c-4.249 5.957-5.279 10.783 3.035 27.923 0 0 205.919 385.697 247.811 387.762l186.788.21s4.248.252-3.644-7.074l-433.99-408.821z" />
            </clipPath>
            <g clip-path="url(#E)" class="B">
                <use href="#_FlagImage" />
            </g>
        </g>
    </g>
</svg>
